<svg width="1200" height="760" viewBox="0 0 1200 760" fill="none" xmlns="http://www.w3.org/2000/svg">
  <rect width="1200" height="760" rx="24" fill="#F8FAFC"/>
  <rect x="32" y="32" width="1136" height="696" rx="18" fill="#FFFFFF" stroke="#D9E2EF"/>
  <rect x="72" y="82" width="280" height="120" rx="14" fill="#EEF2F7"/>
  <rect x="384" y="82" width="280" height="120" rx="14" fill="#EEF2F7"/>
  <rect x="696" y="82" width="432" height="120" rx="14" fill="#EEF2F7"/>
  <rect x="72" y="236" width="522" height="212" rx="14" fill="#F8FAFC" stroke="#D9E2EF"/>
  <path d="M104 396L198 328L278 360L364 290L452 330L562 266" stroke="#2563EB" stroke-width="8" stroke-linecap="round" stroke-linejoin="round"/>
  <circle cx="198" cy="328" r="10" fill="#2563EB"/>
  <circle cx="364" cy="290" r="10" fill="#2563EB"/>
  <circle cx="562" cy="266" r="10" fill="#2563EB"/>
  <rect x="620" y="236" width="508" height="212" rx="14" fill="#F8FAFC" stroke="#D9E2EF"/>
  <rect x="656" y="278" width="62" height="128" rx="8" fill="#0EA5A4"/>
  <rect x="744" y="312" width="62" height="94" rx="8" fill="#0EA5A4" opacity="0.82"/>
  <rect x="832" y="256" width="62" height="150" rx="8" fill="#0EA5A4" opacity="0.74"/>
  <rect x="920" y="330" width="62" height="76" rx="8" fill="#0EA5A4" opacity="0.64"/>
  <rect x="1008" y="286" width="62" height="120" rx="8" fill="#0EA5A4" opacity="0.9"/>
  <rect x="72" y="484" width="1056" height="208" rx="14" fill="#F8FAFC" stroke="#D9E2EF"/>
  <rect x="106" y="526" width="296" height="18" rx="9" fill="#CBD5E1"/>
  <rect x="106" y="562" width="612" height="18" rx="9" fill="#CBD5E1"/>
  <rect x="106" y="598" width="516" height="18" rx="9" fill="#CBD5E1"/>
  <rect x="754" y="526" width="336" height="112" rx="12" fill="#EEF2FF"/>
  <rect x="780" y="552" width="88" height="58" rx="8" fill="#6366F1"/>
  <rect x="888" y="552" width="88" height="58" rx="8" fill="#6366F1" opacity="0.75"/>
  <rect x="996" y="552" width="68" height="58" rx="8" fill="#6366F1" opacity="0.55"/>
</svg>
