<svg width="1200" height="760" viewBox="0 0 1200 760" fill="none" xmlns="http://www.w3.org/2000/svg">
  <rect width="1200" height="760" rx="24" fill="#F8FAFC"/>
  <rect x="32" y="32" width="1136" height="696" rx="18" fill="#FFFFFF" stroke="#D9E2EF"/>
  <rect x="72" y="82" width="1056" height="146" rx="14" fill="#EEF2F7"/>
  <rect x="104" y="124" width="296" height="22" rx="11" fill="#94A3B8"/>
  <rect x="416" y="124" width="296" height="22" rx="11" fill="#94A3B8"/>
  <rect x="728" y="124" width="220" height="22" rx="11" fill="#94A3B8"/>
  <rect x="72" y="252" width="520" height="438" rx="14" fill="#F8FAFC" stroke="#D9E2EF"/>
  <path d="M106 650L176 598L246 620L316 526L386 558L456 498L526 532" stroke="#0EA5A4" stroke-width="8" stroke-linecap="round" stroke-linejoin="round"/>
  <circle cx="316" cy="526" r="10" fill="#0EA5A4"/>
  <circle cx="456" cy="498" r="10" fill="#0EA5A4"/>
  <circle cx="526" cy="532" r="10" fill="#0EA5A4"/>
  <rect x="624" y="252" width="504" height="212" rx="14" fill="#F8FAFC" stroke="#D9E2EF"/>
  <path d="M668 410C698 340 770 300 852 300C926 300 992 334 1020 392" stroke="#2563EB" stroke-width="8" stroke-linecap="round"/>
  <path d="M748 410C764 366 804 338 852 338C898 338 936 364 952 410" stroke="#2563EB" stroke-width="8" stroke-linecap="round" opacity="0.7"/>
  <path d="M820 410C828 390 846 378 866 378C886 378 904 390 912 410" stroke="#2563EB" stroke-width="8" stroke-linecap="round" opacity="0.5"/>
  <rect x="624" y="478" width="504" height="212" rx="14" fill="#F8FAFC" stroke="#D9E2EF"/>
  <rect x="656" y="516" width="440" height="24" rx="12" fill="#CBD5E1"/>
  <rect x="656" y="558" width="308" height="24" rx="12" fill="#CBD5E1"/>
  <rect x="656" y="600" width="372" height="24" rx="12" fill="#CBD5E1"/>
  <rect x="978" y="558" width="118" height="66" rx="10" fill="#EEF2FF"/>
  <circle cx="1038" cy="591" r="21" fill="#6366F1"/>
</svg>
