<svg width="1200" height="760" viewBox="0 0 1200 760" fill="none" xmlns="http://www.w3.org/2000/svg">
  <rect width="1200" height="760" rx="24" fill="#F8FAFC"/>
  <rect x="32" y="32" width="1136" height="696" rx="18" fill="#FFFFFF" stroke="#D9E2EF"/>
  <rect x="72" y="84" width="1056" height="154" rx="14" fill="#EEF2F7"/>
  <rect x="104" y="126" width="360" height="24" rx="12" fill="#94A3B8"/>
  <rect x="482" y="126" width="268" height="24" rx="12" fill="#94A3B8"/>
  <rect x="768" y="126" width="210" height="24" rx="12" fill="#94A3B8"/>
  <rect x="72" y="262" width="350" height="426" rx="14" fill="#F8FAFC" stroke="#D9E2EF"/>
  <rect x="106" y="304" width="282" height="54" rx="10" fill="#EFF6FF"/>
  <rect x="106" y="376" width="282" height="54" rx="10" fill="#ECFEFF"/>
  <rect x="106" y="448" width="282" height="54" rx="10" fill="#EEF2FF"/>
  <rect x="106" y="520" width="282" height="54" rx="10" fill="#EFF6FF"/>
  <rect x="456" y="262" width="672" height="204" rx="14" fill="#F8FAFC" stroke="#D9E2EF"/>
  <path d="M498 422L554 352L612 382L674 310L738 332L804 284L870 318L930 270L1002 294L1084 250" stroke="#2563EB" stroke-width="8" stroke-linecap="round" stroke-linejoin="round"/>
  <circle cx="674" cy="310" r="9" fill="#2563EB"/>
  <circle cx="804" cy="284" r="9" fill="#2563EB"/>
  <circle cx="930" cy="270" r="9" fill="#2563EB"/>
  <rect x="456" y="484" width="672" height="204" rx="14" fill="#F8FAFC" stroke="#D9E2EF"/>
  <rect x="492" y="526" width="118" height="120" rx="10" fill="#0EA5A4"/>
  <rect x="628" y="560" width="118" height="86" rx="10" fill="#0EA5A4" opacity="0.8"/>
  <rect x="764" y="540" width="118" height="106" rx="10" fill="#0EA5A4" opacity="0.7"/>
  <rect x="900" y="502" width="118" height="144" rx="10" fill="#0EA5A4" opacity="0.9"/>
</svg>
